# Blender 3.6.1
# www.blender.org
mtllib MedKit_Low_Poly.mtl
o MedKit
v 0.976494 0.418435 -0.869709
v 0.976494 0.451141 -0.869709
v 0.892365 0.451141 -0.953837
v 0.892365 0.418435 -0.953837
v 0.892365 0.418435 0.999150
v 0.892365 0.451141 0.999150
v 0.976494 0.451141 0.915021
v 0.976494 0.418435 0.915021
v -0.913846 -0.000210 0.936503
v -0.913846 0.085944 1.022656
v -1.000000 0.085944 0.936503
v -0.913846 0.783632 1.022656
v -0.913846 0.869786 0.936503
v -1.000000 0.783632 0.936503
v -0.913846 -0.000210 -0.891190
v -1.000000 0.085944 -0.891190
v -0.913846 0.085944 -0.977344
v -0.913846 0.869786 -0.891190
v -0.913846 0.783632 -0.977344
v -1.000000 0.783632 -0.891190
v 0.913846 -0.000210 0.936503
v 1.000000 0.085944 0.936503
v 0.913846 0.085944 1.022656
v 0.913846 0.869786 0.936503
v 0.913846 0.783632 1.022656
v 1.000000 0.783632 0.936503
v 0.913846 -0.000210 -0.891190
v 0.913846 0.085944 -0.977344
v 1.000000 0.085944 -0.891190
v 0.913846 0.869786 -0.891190
v 1.000000 0.783632 -0.891190
v 0.913846 0.783632 -0.977344
v 1.000000 0.416904 0.936503
v 1.000000 0.452672 0.936503
v 0.913846 0.452672 1.022656
v 0.913846 0.416904 1.022656
v 0.913846 0.416904 -0.977344
v 0.913846 0.452672 -0.977344
v 1.000000 0.452672 -0.891190
v 1.000000 0.416904 -0.891190
v -1.000000 0.416904 -0.891190
v -1.000000 0.452672 -0.891190
v -0.913846 0.452672 -0.977344
v -0.913846 0.416904 -0.977344
v -1.000000 0.452672 0.936503
v -1.000000 0.416904 0.936503
v -0.913846 0.416904 1.022656
v -0.913846 0.452672 1.022656
v -0.976494 0.418435 -0.869709
v -0.976494 0.451141 -0.869709
v -0.892365 0.451141 -0.953837
v -0.892365 0.418435 -0.953837
v -0.976494 0.451141 0.915021
v -0.976494 0.418435 0.915021
v -0.892365 0.418435 0.999150
v -0.892365 0.451141 0.999150
v -0.734107 0.434788 -1.022656
v -0.465893 0.434788 -1.022656
v 0.734107 0.434788 -1.022656
v 0.465893 0.434788 -1.022656
v 0.734107 0.471104 -1.001689
v 0.465893 0.471104 -1.001689
v 0.734107 0.471104 -0.959755
v 0.465893 0.471104 -0.959755
v 0.734107 0.434788 -0.938787
v 0.465893 0.434788 -0.938787
v 0.734107 0.398472 -0.959755
v 0.465893 0.398472 -0.959755
v 0.734107 0.398472 -1.001689
v 0.465893 0.398472 -1.001689
v -0.465893 0.471104 -1.001689
v -0.734107 0.471104 -1.001689
v -0.465893 0.471104 -0.959755
v -0.734107 0.471104 -0.959755
v -0.465893 0.434788 -0.938787
v -0.734107 0.434788 -0.938787
v -0.465893 0.398472 -0.959755
v -0.734107 0.398472 -0.959755
v -0.465893 0.398472 -1.001689
v -0.734107 0.398472 -1.001689
v -0.240000 0.881412 -0.323344
v 0.240000 0.881412 -0.323344
v -0.240000 0.881412 -0.431344
v 0.240000 0.881412 -0.431344
v -0.054000 0.880216 -0.617344
v -0.054000 0.880216 -0.137344
v 0.054000 0.880216 -0.617344
v 0.054000 0.880216 -0.137344
v 0.000000 0.880216 -0.777789
v -0.103643 0.880216 -0.764145
v -0.200223 0.880216 -0.724140
v -0.283158 0.880216 -0.660502
v -0.346796 0.880216 -0.577567
v -0.386801 0.880216 -0.480987
v -0.400446 0.880216 -0.377344
v -0.386801 0.880216 -0.273701
v -0.346796 0.880216 -0.177121
v -0.283158 0.880216 -0.094186
v -0.200223 0.880216 -0.030547
v -0.103643 0.880216 0.009457
v 0.000000 0.880216 0.023102
v 0.103643 0.880216 0.009457
v 0.200223 0.880216 -0.030547
v 0.283158 0.880216 -0.094186
v 0.346796 0.880216 -0.177121
v 0.386801 0.880216 -0.273701
v 0.400446 0.880216 -0.377344
v 0.386801 0.880216 -0.480987
v 0.346796 0.880216 -0.577567
v 0.283158 0.880216 -0.660502
v 0.200223 0.880216 -0.724140
v 0.103643 0.880216 -0.764145
v 0.000000 0.880216 -0.697700
v -0.082914 0.880216 -0.686784
v -0.160178 0.880216 -0.654781
v -0.226526 0.880216 -0.603870
v -0.277437 0.880216 -0.537522
v -0.309441 0.880216 -0.460258
v -0.320357 0.880216 -0.377344
v -0.309441 0.880216 -0.294429
v -0.277437 0.880216 -0.217165
v -0.226526 0.880216 -0.150817
v -0.160178 0.880216 -0.099907
v -0.082914 0.880216 -0.067903
v 0.000000 0.880216 -0.056987
v 0.082914 0.880216 -0.067903
v 0.160178 0.880216 -0.099907
v 0.226526 0.880216 -0.150817
v 0.277437 0.880216 -0.217165
v 0.309441 0.880216 -0.294429
v 0.320357 0.880216 -0.377344
v 0.309441 0.880216 -0.460258
v 0.277437 0.880216 -0.537522
v 0.226526 0.880216 -0.603870
v 0.160178 0.880216 -0.654781
v 0.082914 0.880216 -0.686784
v -0.240000 0.857685 -0.323344
v 0.240000 0.857685 -0.323344
v -0.240000 0.857685 -0.431344
v 0.240000 0.857685 -0.431344
v -0.054000 0.856489 -0.617344
v -0.054000 0.856489 -0.137344
v 0.054000 0.856489 -0.617344
v 0.054000 0.856489 -0.137344
v 0.000000 0.856489 -0.777789
v -0.103643 0.856489 -0.764145
v -0.200223 0.856489 -0.724140
v -0.283158 0.856489 -0.660502
v -0.346796 0.856489 -0.577567
v -0.386801 0.856489 -0.480987
v -0.400446 0.856489 -0.377344
v -0.386801 0.856489 -0.273701
v -0.346796 0.856489 -0.177121
v -0.283158 0.856489 -0.094186
v -0.200223 0.856489 -0.030547
v -0.103643 0.856489 0.009457
v 0.000000 0.856489 0.023102
v 0.103643 0.856489 0.009457
v 0.200223 0.856489 -0.030547
v 0.283158 0.856489 -0.094186
v 0.346796 0.856489 -0.177121
v 0.386801 0.856489 -0.273701
v 0.400446 0.856489 -0.377344
v 0.386801 0.856489 -0.480987
v 0.346796 0.856489 -0.577567
v 0.283158 0.856489 -0.660502
v 0.200223 0.856489 -0.724140
v 0.103643 0.856489 -0.764145
v 0.000000 0.856489 -0.697700
v -0.082914 0.856489 -0.686784
v -0.160178 0.856489 -0.654781
v -0.226526 0.856489 -0.603870
v -0.277437 0.856489 -0.537522
v -0.309441 0.856489 -0.460258
v -0.320357 0.856489 -0.377344
v -0.309441 0.856489 -0.294429
v -0.277437 0.856489 -0.217165
v -0.226526 0.856489 -0.150817
v -0.160178 0.856489 -0.099907
v -0.082914 0.856489 -0.067903
v 0.000000 0.856489 -0.056987
v 0.082914 0.856489 -0.067903
v 0.160178 0.856489 -0.099907
v 0.226526 0.856489 -0.150817
v 0.277437 0.856489 -0.217165
v 0.309441 0.856489 -0.294429
v 0.320357 0.856489 -0.377344
v 0.309441 0.856489 -0.460258
v 0.277437 0.856489 -0.537522
v 0.226526 0.856489 -0.603870
v 0.160178 0.856489 -0.654781
v 0.082914 0.856489 -0.686784
vn -0.5773 -0.5774 0.5774
vn -0.5774 0.5774 0.5773
vn -0.5774 -0.5773 -0.5774
vn -0.5774 0.5773 -0.5773
vn 0.5773 -0.5774 0.5774
vn 0.5774 0.5774 0.5773
vn 0.5774 -0.5773 -0.5774
vn 0.5774 0.5773 -0.5773
vn -0.0000 -0.9979 0.0650
vn 0.0650 0.9979 -0.0000
vn 0.0650 -0.9979 -0.0000
vn -0.0650 0.9979 -0.0000
vn -0.0000 0.9979 0.0650
vn -0.0000 -0.9979 -0.0650
vn -0.0000 0.9979 -0.0650
vn -0.0650 -0.9979 -0.0000
vn 1.0000 -0.0000 -0.0000
vn -0.0000 1.0000 -0.0000
vn -0.7071 -0.0000 -0.7071
vn -0.7071 -0.7071 -0.0000
vn -0.7071 -0.0000 0.7071
vn -0.7071 0.7071 -0.0000
vn -1.0000 -0.0000 -0.0000
vn -0.0000 -0.7071 -0.7071
vn -0.0000 0.7071 -0.7071
vn 0.7071 -0.0000 -0.7071
vn 0.7071 -0.7071 -0.0000
vn 0.7071 0.7071 -0.0000
vn -0.0000 -0.7071 0.7071
vn -0.0000 0.7071 0.7071
vn -0.0000 -1.0000 -0.0000
vn -0.0000 -0.0000 -1.0000
vn 0.7071 -0.0000 0.7071
vn 0.9914 -0.0000 -0.1305
vn -0.9914 -0.0000 -0.1305
vn 0.0340 0.9988 -0.0340
vn 0.0340 0.9988 0.0340
vn 0.0340 -0.9988 -0.0340
vn 0.0340 -0.9988 0.0340
vn -0.0000 -0.0000 1.0000
vn 0.9239 -0.0000 0.3827
vn -0.7934 -0.0000 -0.6088
vn -0.0340 0.9988 -0.0340
vn -0.0340 -0.9988 -0.0340
vn -0.3827 -0.0000 -0.9239
vn -0.0000 0.5000 0.8660
vn -0.1305 -0.0000 -0.9914
vn -0.0000 -0.5000 -0.8660
vn -0.0340 0.9988 0.0340
vn -0.9239 -0.0000 -0.3827
vn -0.0000 -0.5000 0.8660
vn -0.9914 -0.0000 0.1305
vn 0.3827 -0.0000 -0.9239
vn -0.0000 0.5000 -0.8660
vn 0.3827 -0.0000 0.9239
vn 0.6088 -0.0000 -0.7934
vn -0.3827 -0.0000 0.9239
vn -0.0340 -0.9988 0.0340
vn 0.9239 -0.0000 -0.3827
vn 0.7934 -0.0000 0.6088
vn 0.6088 -0.0000 0.7934
vn -0.6088 -0.0000 0.7934
vn 0.1305 -0.0000 0.9914
vn -0.1305 -0.0000 0.9914
vn -0.6088 -0.0000 -0.7934
vn 0.7934 -0.0000 -0.6088
vn -0.9239 -0.0000 0.3827
vn 0.9914 -0.0000 0.1305
vn -0.7934 -0.0000 0.6088
vn 0.1305 -0.0000 -0.9914
vt 0.334024 0.601212
vt 0.356885 0.611305
vt 0.341982 0.625171
vt 0.436155 0.704909
vt 0.444311 0.728726
vt 0.421474 0.718848
vt 0.094296 0.813725
vt 0.111829 0.827126
vt 0.092138 0.838633
vt 0.204637 0.942661
vt 0.180374 0.940691
vt 0.193010 0.923662
vt 0.588242 0.374444
vt 0.611079 0.384322
vt 0.596398 0.398261
vt 0.698529 0.501958
vt 0.675668 0.491865
vt 0.690571 0.477999
vt 0.827916 0.160509
vt 0.852179 0.162479
vt 0.839543 0.179508
vt 0.938257 0.289445
vt 0.920724 0.276044
vt 0.940414 0.264537
vt 0.400690 0.664767
vt 0.636714 0.447179
vt 0.641873 0.449496
vt 0.878856 0.218319
vt 0.649364 0.429575
vt 0.644892 0.427508
vt 0.653966 0.437588
vt 0.883836 0.227107
vt 0.888677 0.229266
vt 0.378587 0.665582
vt 0.148717 0.876063
vt 0.143876 0.873904
vt 0.631863 0.438403
vt 0.395839 0.655991
vt 0.390680 0.653674
vt 0.295390 0.046143
vt 0.047083 0.273522
vt 0.041172 0.272911
vt 0.051075 0.284013
vt 0.299383 0.056633
vt 0.305294 0.057245
vt 0.153697 0.884851
vt 0.383189 0.673595
vt 0.387661 0.675662
vt 0.923193 0.557049
vt 0.938588 0.560990
vt 0.941253 0.579555
vt 0.138116 0.609090
vt 0.151911 0.612622
vt 0.154299 0.629258
vt 0.925297 0.756176
vt 0.671079 0.982944
vt 0.129709 0.886128
vt 0.139936 0.897707
vt 0.399212 0.659990
vt 0.379865 0.669653
vt 0.361474 0.120226
vt 0.107256 0.346994
vt 0.092139 0.330047
vt 0.346357 0.103279
vt 0.940414 0.773123
vt 0.686196 0.999891
vt 0.902844 0.217042
vt 0.000109 0.226877
vt 0.254327 0.000109
vt 0.892617 0.205463
vt 0.509346 0.147590
vt 0.513101 0.121901
vt 0.705206 0.124636
vt 0.708229 0.150421
vt 0.880190 0.222778
vt 0.895889 0.209930
vt 0.633341 0.443180
vt 0.898857 0.213257
vt 0.652688 0.433517
vt 0.295325 0.052084
vt 0.051140 0.278071
vt 0.152363 0.880392
vt 0.521961 0.197500
vt 0.512368 0.173376
vt 0.680104 0.079691
vt 0.695614 0.100511
vt 0.484486 0.147236
vt 0.488263 0.179468
vt 0.133696 0.889913
vt 0.136664 0.893240
vt 0.704474 0.176110
vt 0.728395 0.182886
vt 0.733089 0.150775
vt 0.909370 0.471185
vt 0.908998 0.453451
vt 0.924171 0.444262
vt 0.939100 0.453472
vt 0.938588 0.471005
vt 0.635892 0.053319
vt 0.659734 0.063595
vt 0.909327 0.561231
vt 0.924795 0.475313
vt 0.574906 0.268614
vt 0.607018 0.273307
vt 0.907060 0.579614
vt 0.125690 0.612838
vt 0.125728 0.532146
vt 0.139551 0.535846
vt 0.952657 0.560990
vt 0.952657 0.471005
vt 0.966726 0.471005
vt 0.966726 0.560990
vt 0.500254 0.209624
vt 0.151911 0.531985
vt 0.125395 0.516254
vt 0.138992 0.508020
vt 0.152369 0.516273
vt 0.489179 0.115125
vt 0.560292 0.062179
vt 0.584417 0.052586
vt 0.881170 0.561218
vt 0.881213 0.471171
vt 0.895291 0.471178
vt 0.895248 0.561224
vt 0.595073 0.072852
vt 0.629851 0.072852
vt 0.123658 0.629311
vt 0.529053 0.166493
vt 0.529053 0.128959
vt 0.581683 0.244692
vt 0.557841 0.234417
vt 0.715551 0.212689
vt 0.695431 0.238151
vt 0.678102 0.220322
vt 0.694198 0.199952
vt 0.657282 0.235832
vt 0.669406 0.257539
vt 0.639250 0.269530
vt 0.633157 0.245425
vt 0.548169 0.040473
vt 0.578325 0.028482
vt 0.545104 0.255769
vt 0.642668 0.029397
vt 0.610203 0.049564
vt 0.610557 0.024704
vt 0.502024 0.085322
vt 0.523376 0.098059
vt 0.537471 0.218320
vt 0.519641 0.235649
vt 0.539473 0.077689
vt 0.522144 0.059860
vt 0.138996 0.638935
vt 0.729311 0.118543
vt 0.924176 0.590353
vt 0.607372 0.248447
vt 0.672470 0.042242
vt 0.697933 0.062362
vt 0.717320 0.088387
vt 0.113074 0.612832
vt 0.113112 0.532140
vt 0.695871 0.166493
vt 0.695871 0.128959
vt 0.629851 0.227421
vt 0.595073 0.227421
vt 0.100458 0.612826
vt 0.100496 0.532134
vt 0.164518 0.531985
vt 0.164518 0.612622
vt 0.177126 0.531985
vt 0.177126 0.612622
s 0
usemtl MedKit_Material
f 9/1/1 10/2/1 11/3/1
f 12/4/2 13/5/2 14/6/2
f 15/7/3 16/8/3 17/9/3
f 18/10/4 19/11/4 20/12/4
f 21/13/5 22/14/5 23/15/5
f 24/16/6 25/17/6 26/18/6
f 27/19/7 28/20/7 29/21/7
f 30/22/8 31/23/8 32/24/8
f 48/25/9 6/26/9 35/27/9
f 40/28/10 8/29/10 33/30/10
f 34/31/11 2/32/11 39/33/11
f 46/34/12 49/35/12 41/36/12
f 36/37/13 55/38/13 47/39/13
f 38/40/14 51/41/14 43/42/14
f 44/43/15 4/44/15 37/45/15
f 42/46/16 53/47/16 45/48/16
f 75/49/17 77/50/17 79/51/17
f 65/52/17 67/53/17 69/54/17
f 39/33/17 31/23/17 26/18/17 34/31/17
f 30/55/18 18/56/18 13/5/18 24/16/18
f 44/57/19 17/9/19 16/8/19 41/36/19
f 19/11/19 43/58/19 42/46/19 20/12/19
f 15/7/20 9/1/20 11/3/20 16/8/20
f 56/59/21 53/47/21 54/60/21 55/38/21
f 13/5/22 18/10/22 20/12/22 14/6/22
f 11/3/23 46/34/23 41/36/23 16/8/23
f 27/61/24 15/62/24 17/63/24 28/64/24
f 18/56/25 30/55/25 32/65/25 19/66/25
f 31/23/26 39/33/26 38/67/26 32/24/26
f 21/13/27 27/19/27 29/21/27 22/14/27
f 30/22/28 24/16/28 26/18/28 31/23/28
f 29/21/17 40/28/17 33/30/17 22/14/17
f 9/1/29 21/13/29 23/15/29 10/2/29
f 24/16/30 13/5/30 12/4/30 25/17/30
f 15/62/31 27/61/31 21/13/31 9/1/31
f 43/42/32 19/68/32 32/69/32 38/40/32
f 45/48/23 14/6/23 20/12/23 42/46/23
f 48/25/21 12/4/21 14/6/21 45/48/21
f 40/28/26 29/21/26 28/20/26 37/70/26
f 10/2/21 47/39/21 46/34/21 11/3/21
f 25/17/33 35/27/33 34/31/33 26/18/33
f 17/63/32 44/43/32 37/45/32 28/64/32
f 119/71/34 120/72/34 176/72/34 175/71/34
f 130/73/35 131/74/35 187/74/35 186/73/35
f 1/75/36 40/28/36 37/70/36 4/76/36
f 48/25/9 56/59/9 6/26/9
f 36/37/37 33/30/37 8/29/37 5/77/37
f 40/28/10 1/75/10 8/29/10
f 38/67/38 39/33/38 2/32/38 3/78/38
f 34/31/11 7/79/11 2/32/11
f 7/79/39 34/31/39 35/27/39 6/26/39
f 46/34/12 54/60/12 49/35/12
f 5/77/33 8/29/33 7/79/33 6/26/33
f 1/75/26 4/76/26 3/78/26 2/32/26
f 51/41/32 3/80/32 4/44/32 52/81/32
f 53/47/23 50/82/23 49/35/23 54/60/23
f 2/32/17 7/79/17 8/29/17 1/75/17
f 6/26/40 56/59/40 55/38/40 5/77/40
f 117/83/41 118/84/41 174/84/41 173/83/41
f 128/85/42 129/86/42 185/86/42 184/85/42
f 36/37/13 5/77/13 55/38/13
f 175/71/31 151/87/31 150/88/31 174/84/31
f 38/40/14 3/80/14 51/41/14
f 44/57/43 41/36/43 49/35/43 52/89/43
f 44/43/15 52/81/15 4/44/15
f 50/82/44 42/46/44 43/58/44 51/90/44
f 42/46/16 50/82/16 53/47/16
f 187/74/31 188/91/31 164/92/31 163/93/31
f 74/94/23 72/95/23 57/96/23
f 57/96/23 80/97/23 78/98/23
f 126/99/45 127/100/45 183/100/45 182/99/45
f 73/101/46 74/94/46 76/102/46 75/49/46
f 90/103/47 89/104/47 145/104/47 146/103/47
f 76/102/23 74/94/23 57/96/23 78/98/23
f 71/105/17 73/101/17 75/49/17
f 63/106/46 64/107/46 66/108/46 65/52/46
f 79/109/48 80/110/48 57/111/48 58/112/48
f 54/60/49 46/34/49 47/39/49 55/38/49
f 94/88/50 93/113/50 149/113/50 150/88/50
f 65/52/51 66/108/51 68/114/51 67/53/51
f 64/107/23 62/115/23 60/116/23
f 60/116/23 70/117/23 68/114/23
f 96/118/52 95/87/52 151/87/52 152/118/52
f 123/119/53 124/120/53 180/120/53 179/119/53
f 58/121/54 57/122/54 72/123/54 71/124/54
f 86/125/40 142/125/40 144/126/40 88/126/40
f 66/108/23 64/107/23 60/116/23 68/114/23
f 61/127/17 63/106/17 65/52/17
f 83/128/23 139/128/23 137/129/23 81/129/23
f 114/130/55 115/131/55 171/131/55 170/130/55
f 109/132/18 110/133/18 134/134/18 133/135/18
f 135/136/18 111/137/18 112/138/18 136/139/18
f 99/140/18 100/141/18 124/120/18 123/119/18
f 147/142/31 146/103/31 170/130/31 171/131/31
f 191/136/31 167/137/31 166/133/31 190/134/31
f 180/120/31 156/141/31 155/140/31 179/119/31
f 102/143/18 126/99/18 125/144/18 101/145/18
f 96/118/18 97/146/18 121/147/18 120/72/18
f 172/148/31 173/83/31 149/113/31 148/149/31
f 93/113/18 94/88/18 118/84/18 117/83/18
f 152/118/31 151/87/31 175/71/31 176/72/31
f 122/150/18 98/151/18 99/140/18 123/119/18
f 59/152/17 61/127/17 65/52/17 69/54/17
f 178/150/31 154/151/31 153/146/31 177/147/31
f 163/93/31 162/153/31 186/73/31 187/74/31
f 174/84/31 150/88/31 149/113/31 173/83/31
f 148/149/31 147/142/31 171/131/31 172/148/31
f 90/103/18 91/142/18 115/131/18 114/130/18
f 94/88/18 95/87/18 119/71/18 118/84/18
f 58/154/17 71/105/17 75/49/17 79/51/17
f 113/155/18 89/104/18 90/103/18 114/130/18
f 92/149/18 116/148/18 115/131/18 91/142/18
f 110/133/18 111/137/18 135/136/18 134/134/18
f 103/156/18 104/157/18 128/85/18 127/100/18
f 122/150/56 123/119/56 179/119/56 178/150/56
f 135/136/57 136/139/57 192/139/57 191/136/57
f 106/153/18 130/73/18 129/86/18 105/158/18
f 158/143/31 157/145/31 181/144/31 182/99/31
f 169/155/31 170/130/31 146/103/31 145/104/31
f 191/136/31 192/139/31 168/138/31 167/137/31
f 184/85/31 185/86/31 161/158/31 160/157/31
f 178/150/31 179/119/31 155/140/31 154/151/31
f 103/156/18 127/100/18 126/99/18 102/143/18
f 186/73/31 162/153/31 161/158/31 185/86/31
f 153/146/31 152/118/31 176/72/31 177/147/31
f 145/104/31 168/138/31 192/139/31 169/155/31
f 100/141/18 101/145/18 125/144/18 124/120/18
f 112/138/18 89/104/18 113/155/18 136/139/18
f 92/149/18 93/113/18 117/83/18 116/148/18
f 131/74/18 107/93/18 108/92/18 132/91/18
f 181/144/31 157/145/31 156/141/31 180/120/31
f 132/91/18 108/92/18 109/132/18 133/135/18
f 188/91/31 189/135/31 165/132/31 164/92/31
f 183/100/31 159/156/31 158/143/31 182/99/31
f 97/146/18 98/151/18 122/150/18 121/147/18
f 190/134/31 166/133/31 165/132/31 189/135/31
f 107/93/18 131/74/18 130/73/18 106/153/18
f 96/118/18 120/72/18 119/71/18 95/87/18
f 128/85/18 104/157/18 105/158/18 129/86/18
f 184/85/31 160/157/31 159/156/31 183/100/31
f 48/25/58 45/48/58 53/47/58 56/59/58
f 61/159/18 62/160/18 64/107/18 63/106/18
f 120/72/59 121/147/59 177/147/59 176/72/59
f 75/49/51 76/102/51 78/98/51 77/50/51
f 95/87/35 94/88/35 150/88/35 151/87/35
f 105/158/60 104/157/60 160/157/60 161/158/60
f 137/129/31 139/128/31 140/161/31 138/162/31
f 81/129/40 137/129/40 138/162/40 82/162/40
f 77/50/31 78/98/31 80/110/31 79/109/31
f 115/131/61 116/148/61 172/148/61 171/131/61
f 111/137/56 110/133/56 166/133/56 167/137/56
f 99/140/62 98/151/62 154/151/62 155/140/62
f 125/144/47 126/99/47 182/99/47 181/144/47
f 113/155/63 114/130/63 170/130/63 169/155/63
f 88/126/17 144/126/17 143/163/17 87/163/17
f 101/145/64 100/141/64 156/141/64 157/145/64
f 127/100/65 128/85/65 184/85/65 183/100/65
f 102/143/63 101/145/63 157/145/63 158/143/63
f 52/89/19 49/35/19 50/82/19 51/90/19
f 103/156/55 102/143/55 158/143/55 159/156/55
f 129/86/50 130/73/50 186/73/50 185/86/50
f 104/157/61 103/156/61 159/156/61 160/157/61
f 121/147/66 122/150/66 178/150/66 177/147/66
f 85/164/23 141/164/23 142/125/23 86/125/23
f 132/91/67 133/135/67 189/135/67 188/91/67
f 59/165/54 60/166/54 62/160/54 61/159/54
f 84/161/32 140/161/32 139/128/32 83/128/32
f 108/92/34 107/93/34 163/93/34 164/92/34
f 136/139/64 113/155/64 169/155/64 192/139/64
f 82/162/17 138/162/17 140/161/17 84/161/17
f 110/133/66 109/132/66 165/132/66 166/133/66
f 67/53/31 68/114/31 70/167/31 69/168/31
f 107/93/68 106/153/68 162/153/68 163/93/68
f 109/132/59 108/92/59 164/92/59 165/132/59
f 144/126/31 142/125/31 141/164/31 143/163/31
f 134/134/62 135/136/62 191/136/62 190/134/62
f 81/129/18 82/162/18 84/161/18 83/128/18
f 133/135/69 134/134/69 190/134/69 189/135/69
f 71/124/18 72/123/18 74/94/18 73/101/18
f 106/153/41 105/158/41 161/158/41 162/153/41
f 112/138/53 111/137/53 167/137/53 168/138/53
f 131/74/52 132/91/52 188/91/52 187/74/52
f 89/104/70 112/138/70 168/138/70 145/104/70
f 87/163/32 143/163/32 141/164/32 85/164/32
f 69/168/48 70/167/48 60/169/48 59/170/48
f 97/146/67 96/118/67 152/118/67 153/146/67
f 88/126/18 87/163/18 85/164/18 86/125/18
f 98/151/69 97/146/69 153/146/69 154/151/69
f 100/141/57 99/140/57 155/140/57 156/141/57
f 35/27/40 25/17/40 12/4/40 48/25/40
f 116/148/60 117/83/60 173/83/60 172/148/60
f 91/142/45 90/103/45 146/103/45 147/142/45
f 36/37/33 23/15/33 22/14/33 33/30/33
f 92/149/65 91/142/65 147/142/65 148/149/65
f 118/84/68 119/71/68 175/71/68 174/84/68
f 93/113/42 92/149/42 148/149/42 149/113/42
f 124/120/70 125/144/70 181/144/70 180/120/70
f 23/15/40 36/37/40 47/39/40 10/2/40
