{
  "accessors": [
    {
      "bufferView": 2,
      "componentType": 5126,
      "count": 1578,
      "max": [
        0.29000017046928406,
        0.93918776512146,
        1.1340115070343018
      ],
      "min": [
        -0.3689998686313629,
        -0.9308122396469116,
        0.0
      ],
      "type": "VEC3"
    },
    {
      "bufferView": 2,
      "byteOffset": 18936,
      "componentType": 5126,
      "count": 1578,
      "max": [
        1.0,
        1.0,
        1.0
      ],
      "min": [
        -1.0,
        -1.0,
        -1.0
      ],
      "type": "VEC3"
    },
    {
      "bufferView": 3,
      "componentType": 5126,
      "count": 1578,
      "max": [
        1.0,
        1.0,
        1.0,
        1.0
      ],
      "min": [
        -1.0,
        -1.0,
        -1.0,
        1.0
      ],
      "type": "VEC4"
    },
    {
      "bufferView": 1,
      "componentType": 5126,
      "count": 1578,
      "max": [
        0.9990234375,
        0.984525203704834
      ],
      "min": [
        0.0009765625,
        0.000976567855104804
      ],
      "type": "VEC2"
    },
    {
      "bufferView": 1,
      "byteOffset": 12624,
      "componentType": 5126,
      "count": 1578,
      "max": [
        0.9990234375,
        0.984525203704834
      ],
      "min": [
        0.0009765625,
        0.000976567855104804
      ],
      "type": "VEC2"
    },
    {
      "bufferView": 1,
      "byteOffset": 25248,
      "componentType": 5126,
      "count": 1578,
      "max": [
        0.9990234375,
        0.984525203704834
      ],
      "min": [
        0.0009765625,
        0.000976567855104804
      ],
      "type": "VEC2"
    },
    {
      "bufferView": 0,
      "componentType": 5125,
      "count": 5646,
      "type": "SCALAR"
    },
    {
      "bufferView": 2,
      "byteOffset": 37872,
      "componentType": 5126,
      "count": 134,
      "max": [
        0.019829019904136658,
        5.245367473705187e-10,
        0.0360843650996685
      ],
      "min": [
        -0.056499481201171875,
        -0.024000005796551704,
        -0.01982869580388069
      ],
      "type": "VEC3"
    },
    {
      "bufferView": 2,
      "byteOffset": 39480,
      "componentType": 5126,
      "count": 134,
      "max": [
        0.9914449453353882,
        1.0,
        0.9914448857307434
      ],
      "min": [
        -0.9914449453353882,
        -1.0,
        -0.9914448857307434
      ],
      "type": "VEC3"
    },
    {
      "bufferView": 3,
      "byteOffset": 25248,
      "componentType": 5126,
      "count": 134,
      "max": [
        0.9978641867637634,
        1.0,
        0.8660258650779724,
        1.0
      ],
      "min": [
        -0.5000013113021851,
        -1.0,
        -0.8969071507453918,
        1.0
      ],
      "type": "VEC4"
    },
    {
      "bufferView": 1,
      "byteOffset": 37872,
      "componentType": 5126,
      "count": 134,
      "max": [
        0.15344582498073578,
        0.9831646680831909
      ],
      "min": [
        0.0009765626164153218,
        0.9529047012329102
      ],
      "type": "VEC2"
    },
    {
      "bufferView": 1,
      "byteOffset": 38944,
      "componentType": 5126,
      "count": 134,
      "max": [
        0.15344582498073578,
        0.9831646680831909
      ],
      "min": [
        0.0009765626164153218,
        0.9529047012329102
      ],
      "type": "VEC2"
    },
    {
      "bufferView": 1,
      "byteOffset": 40016,
      "componentType": 5126,
      "count": 134,
      "max": [
        0.15344582498073578,
        0.9831646680831909
      ],
      "min": [
        0.0009765626164153218,
        0.9529047012329102
      ],
      "type": "VEC2"
    },
    {
      "bufferView": 0,
      "byteOffset": 22584,
      "componentType": 5125,
      "count": 372,
      "type": "SCALAR"
    },
    {
      "bufferView": 2,
      "byteOffset": 41088,
      "componentType": 5126,
      "count": 104,
      "max": [
        8.940696716308594e-08,
        0.0,
        0.38396430015563965
      ],
      "min": [
        -0.06087047606706619,
        -0.6157500743865967,
        -0.38396430015563965
      ],
      "type": "VEC3"
    },
    {
      "bufferView": 2,
      "byteOffset": 42336,
      "componentType": 5126,
      "count": 104,
      "max": [
        1.0,
        1.0,
        1.0
      ],
      "min": [
        -1.0,
        -1.0,
        -1.0
      ],
      "type": "VEC3"
    },
    {
      "bufferView": 3,
      "byteOffset": 27392,
      "componentType": 5126,
      "count": 104,
      "max": [
        1.0,
        1.0,
        1.0099951168740517e-06,
        1.0
      ],
      "min": [
        -1.0,
        -1.0,
        -6.222566753422143e-06,
        1.0
      ],
      "type": "VEC4"
    },
    {
      "bufferView": 1,
      "byteOffset": 41088,
      "componentType": 5126,
      "count": 104,
      "max": [
        0.8633874654769897,
        0.9708639979362488
      ],
      "min": [
        0.012676507234573364,
        0.0009765625
      ],
      "type": "VEC2"
    },
    {
      "bufferView": 1,
      "byteOffset": 41920,
      "componentType": 5126,
      "count": 104,
      "max": [
        0.8633874654769897,
        0.9708639979362488
      ],
      "min": [
        0.012676507234573364,
        0.0009765625
      ],
      "type": "VEC2"
    },
    {
      "bufferView": 1,
      "byteOffset": 42752,
      "componentType": 5126,
      "count": 104,
      "max": [
        0.8633874654769897,
        0.9708639979362488
      ],
      "min": [
        0.012676507234573364,
        0.0009765625
      ],
      "type": "VEC2"
    },
    {
      "bufferView": 0,
      "byteOffset": 24072,
      "componentType": 5125,
      "count": 216,
      "type": "SCALAR"
    },
    {
      "bufferView": 2,
      "byteOffset": 43584,
      "componentType": 5126,
      "count": 104,
      "max": [
        8.940696716308594e-08,
        0.6157500743865967,
        0.38396430015563965
      ],
      "min": [
        -0.06087047606706619,
        0.0,
        -0.38396430015563965
      ],
      "type": "VEC3"
    },
    {
      "bufferView": 2,
      "byteOffset": 44832,
      "componentType": 5126,
      "count": 104,
      "max": [
        1.0,
        1.0,
        1.0
      ],
      "min": [
        -1.0,
        -1.0,
        -1.0
      ],
      "type": "VEC3"
    },
    {
      "bufferView": 3,
      "byteOffset": 29056,
      "componentType": 5126,
      "count": 104,
      "max": [
        1.0,
        1.0,
        5.764214165537851e-06,
        1.0
      ],
      "min": [
        -1.0,
        -1.0,
        -1.0099959126819158e-06,
        1.0
      ],
      "type": "VEC4"
    },
    {
      "bufferView": 1,
      "byteOffset": 43584,
      "componentType": 5126,
      "count": 104,
      "max": [
        0.8535508513450623,
        0.9815524816513062
      ],
      "min": [
        0.0009765625,
        0.20392565429210663
      ],
      "type": "VEC2"
    },
    {
      "bufferView": 1,
      "byteOffset": 44416,
      "componentType": 5126,
      "count": 104,
      "max": [
        0.8535508513450623,
        0.9815524816513062
      ],
      "min": [
        0.0009765625,
        0.20392565429210663
      ],
      "type": "VEC2"
    },
    {
      "bufferView": 1,
      "byteOffset": 45248,
      "componentType": 5126,
      "count": 104,
      "max": [
        0.8535508513450623,
        0.9815524816513062
      ],
      "min": [
        0.0009765625,
        0.20392565429210663
      ],
      "type": "VEC2"
    },
    {
      "bufferView": 0,
      "byteOffset": 24936,
      "componentType": 5125,
      "count": 216,
      "type": "SCALAR"
    }
  ],
  "asset": {
    "extras": {
      "author": "shortpaca (https://sketchfab.com/shortpaca)",
      "license": "CC-BY-NC-4.0 (http://creativecommons.org/licenses/by-nc/4.0/)",
      "source": "https://sketchfab.com/3d-models/a-kitchen-sink-with-cabinets-for-storage-6ee644f10f524296a9c08acfbad045d3",
      "title": "A kitchen sink with cabinets for storage"
    },
    "generator": "Sketchfab-15.31.0",
    "version": "2.0"
  },
  "bufferViews": [
    {
      "buffer": 0,
      "byteLength": 25800,
      "name": "floatBufferViews",
      "target": 34963
    },
    {
      "buffer": 0,
      "byteLength": 46080,
      "byteOffset": 25800,
      "byteStride": 8,
      "name": "floatBufferViews",
      "target": 34962
    },
    {
      "buffer": 0,
      "byteLength": 46080,
      "byteOffset": 71880,
      "byteStride": 12,
      "name": "floatBufferViews",
      "target": 34962
    },
    {
      "buffer": 0,
      "byteLength": 30720,
      "byteOffset": 117960,
      "byteStride": 16,
      "name": "floatBufferViews",
      "target": 34962
    }
  ],
  "buffers": [
    {
      "byteLength": 148680,
      "uri": "scene.bin"
    }
  ],
  "images": [
    {
      "uri": "textures/Sink_baseColor.png"
    },
    {
      "uri": "textures/Sink_metallicRoughness.png"
    },
    {
      "uri": "textures/Sink_normal.png"
    }
  ],
  "materials": [
    {
      "doubleSided": true,
      "name": "Sink",
      "normalTexture": {
        "index": 2
      },
      "pbrMetallicRoughness": {
        "baseColorTexture": {
          "index": 0
        },
        "metallicRoughnessTexture": {
          "index": 1
        }
      }
    }
  ],
  "meshes": [
    {
      "name": "body_Sink_0",
      "primitives": [
        {
          "attributes": {
            "NORMAL": 1,
            "POSITION": 0,
            "TANGENT": 2,
            "TEXCOORD_0": 3,
            "TEXCOORD_1": 4,
            "TEXCOORD_2": 5
          },
          "indices": 6,
          "material": 0,
          "mode": 4
        }
      ]
    },
    {
      "name": "faucet_handle_Sink_0",
      "primitives": [
        {
          "attributes": {
            "NORMAL": 8,
            "POSITION": 7,
            "TANGENT": 9,
            "TEXCOORD_0": 10,
            "TEXCOORD_1": 11,
            "TEXCOORD_2": 12
          },
          "indices": 13,
          "material": 0,
          "mode": 4
        }
      ]
    },
    {
      "name": "left_door_Sink_0",
      "primitives": [
        {
          "attributes": {
            "NORMAL": 15,
            "POSITION": 14,
            "TANGENT": 16,
            "TEXCOORD_0": 17,
            "TEXCOORD_1": 18,
            "TEXCOORD_2": 19
          },
          "indices": 20,
          "material": 0,
          "mode": 4
        }
      ]
    },
    {
      "name": "right_door_Sink_0",
      "primitives": [
        {
          "attributes": {
            "NORMAL": 22,
            "POSITION": 21,
            "TANGENT": 23,
            "TEXCOORD_0": 24,
            "TEXCOORD_1": 25,
            "TEXCOORD_2": 26
          },
          "indices": 27,
          "material": 0,
          "mode": 4
        }
      ]
    }
  ],
  "nodes": [
    {
      "children": [
        1
      ],
      "matrix": [
        1.0,
        0.0,
        0.0,
        0.0,
        0.0,
        2.220446049250313e-16,
        -1.0,
        0.0,
        0.0,
        1.0,
        2.220446049250313e-16,
        0.0,
        0.0,
        0.0,
        0.0,
        1.0
      ],
      "name": "Sketchfab_model"
    },
    {
      "children": [
        2
      ],
      "matrix": [
        0.009999999776482582,
        0.0,
        0.0,
        0.0,
        0.0,
        0.0,
        0.009999999776482582,
        0.0,
        0.0,
        -0.009999999776482582,
        0.0,
        0.0,
        0.0,
        0.0,
        0.0,
        1.0
      ],
      "name": "sink.fbx"
    },
    {
      "children": [
        3
      ],
      "name": "RootNode"
    },
    {
      "children": [
        4,
        5,
        7,
        9
      ],
      "matrix": [
        100.0,
        0.0,
        0.0,
        0.0,
        0.0,
        -1.629206793918314e-05,
        -99.99999999999868,
        0.0,
        0.0,
        99.99999999999868,
        -1.629206793918314e-05,
        0.0,
        0.0,
        0.0,
        0.0,
        1.0
      ],
      "name": "body"
    },
    {
      "mesh": 0,
      "name": "body_Sink_0"
    },
    {
      "children": [
        6
      ],
      "matrix": [
        1.0,
        0.0,
        0.0,
        0.0,
        0.0,
        1.0,
        -2.646977960169688e-23,
        0.0,
        0.0,
        2.646977960169688e-23,
        1.0,
        0.0,
        0.2350001335144043,
        0.5841877460479736,
        0.8799999952316284,
        1.0
      ],
      "name": "faucet_handle"
    },
    {
      "mesh": 1,
      "name": "faucet_handle_Sink_0"
    },
    {
      "children": [
        8
      ],
      "matrix": [
        1.0,
        0.0,
        0.0,
        0.0,
        0.0,
        1.0,
        -2.646977960169688e-23,
        0.0,
        0.0,
        2.646977960169688e-23,
        1.0,
        0.0,
        -0.2909998893737793,
        0.30368781089782715,
        0.38396430015563965,
        1.0
      ],
      "name": "left_door"
    },
    {
      "mesh": 2,
      "name": "left_door_Sink_0"
    },
    {
      "children": [
        10
      ],
      "matrix": [
        1.0,
        0.0,
        0.0,
        0.0,
        0.0,
        1.0,
        -2.646977960169688e-23,
        0.0,
        0.0,
        2.646977960169688e-23,
        1.0,
        0.0,
        -0.2909998893737793,
        -0.9300622940063477,
        0.38396430015563965,
        1.0
      ],
      "name": "right_door"
    },
    {
      "mesh": 3,
      "name": "right_door_Sink_0"
    }
  ],
  "samplers": [
    {
      "magFilter": 9729,
      "minFilter": 9987,
      "wrapS": 10497,
      "wrapT": 10497
    }
  ],
  "scene": 0,
  "scenes": [
    {
      "name": "Sketchfab_Scene",
      "nodes": [
        0
      ]
    }
  ],
  "textures": [
    {
      "sampler": 0,
      "source": 0
    },
    {
      "sampler": 0,
      "source": 1
    },
    {
      "sampler": 0,
      "source": 2
    }
  ]
}
